<?xml version="1.0" encoding="utf-8"?>
<!-- Generator: Adobe Illustrator 25.1.0, SVG Export Plug-In . SVG Version: 6.00 Build 0)  -->
<svg version="1.1" id="Layer_1" xmlns="http://www.w3.org/2000/svg" xmlns:xlink="http://www.w3.org/1999/xlink" x="0px" y="0px"
	 viewBox="0 0 147 57" style="enable-background:new 0 0 147 57;" xml:space="preserve">
<style type="text/css">
	.st0{fill:#0E2050;}
	.st1{fill:#FFFFFF;}
</style>
<rect x="90" y="0.42" class="st0" width="57" height="57"/>
<path class="st1" d="M97.89,40.78c-0.19,0.19-0.48,0.34-0.92,0.34c-0.36,0-0.71-0.11-0.94-0.35c-0.3-0.3-0.29-0.69-0.29-1.03v-2.08
	h0.46v2.13c0,0.26-0.01,0.51,0.19,0.72c0.14,0.14,0.35,0.21,0.6,0.21c0.25,0,0.44-0.09,0.56-0.21c0.23-0.23,0.21-0.49,0.21-1.06
	v-1.79h0.45v1.72C98.2,40.01,98.22,40.46,97.89,40.78"/>
<polyline class="st1" points="101.46,41.05 99.86,38.35 99.87,41.05 99.46,41.05 99.46,37.66 99.91,37.66 101.51,40.37 101.5,37.66 
	101.91,37.66 101.91,41.05 101.46,41.05 "/>
<rect x="103.28" y="37.66" class="st1" width="0.46" height="3.39"/>
<polyline class="st1" points="106.28,41.05 105.77,41.05 104.6,37.66 105.08,37.66 106.04,40.58 107.02,37.66 107.46,37.66 
	106.28,41.05 "/>
<polyline class="st1" points="108.35,41.05 108.35,37.66 110.22,37.66 110.22,38.04 108.8,38.04 108.8,39.11 110.14,39.11 
	110.14,39.47 108.8,39.47 108.8,40.66 110.26,40.66 110.26,41.05 108.35,41.05 "/>
<path class="st1" d="M113.16,41.05l-0.39-0.88c-0.23-0.52-0.35-0.57-0.8-0.57h-0.21v1.45h-0.45v-3.39h0.75
	c0.45,0,0.8-0.01,1.08,0.27c0.17,0.17,0.26,0.39,0.26,0.67c0,0.23-0.07,0.43-0.21,0.58c-0.12,0.13-0.32,0.24-0.54,0.27
	c0.11,0.01,0.22,0.07,0.29,0.14c0.1,0.1,0.17,0.26,0.26,0.47l0.44,0.98H113.16 M112.8,38.2c-0.18-0.18-0.42-0.18-0.7-0.18h-0.35
	v1.21h0.16c0.32,0,0.65,0.01,0.87-0.2c0.11-0.11,0.17-0.26,0.17-0.43C112.95,38.43,112.88,38.28,112.8,38.2z"/>
<path class="st1" d="M115.38,41.12c-0.6,0-1-0.32-1.04-0.37l0.22-0.31c0.06,0.04,0.39,0.29,0.8,0.29c0.42,0,0.66-0.25,0.66-0.56
	c0-0.37-0.41-0.55-0.78-0.73c-0.43-0.21-0.8-0.43-0.8-0.93c0-0.54,0.44-0.91,1.06-0.91c0.62,0,0.93,0.31,0.96,0.35l-0.23,0.29
	c-0.04-0.04-0.31-0.25-0.71-0.25c-0.37,0-0.63,0.18-0.63,0.49c0,0.32,0.3,0.44,0.63,0.61c0.3,0.15,0.96,0.38,0.96,1.05
	C116.49,40.69,116.08,41.12,115.38,41.12"/>
<rect x="117.56" y="37.66" class="st1" width="0.46" height="3.39"/>
<polyline class="st1" points="120.35,38.04 120.35,41.05 119.9,41.05 119.9,38.04 118.9,38.04 118.9,37.66 121.34,37.66 
	121.34,38.04 120.35,38.04 "/>
<polyline class="st1" points="123.31,39.71 123.31,41.05 122.86,41.05 122.86,39.71 121.79,37.66 122.29,37.66 123.12,39.26 
	123.93,37.66 124.39,37.66 123.31,39.71 "/>
<path class="st1" d="M128.17,41.12c-0.89,0-1.54-0.73-1.54-1.75c0-1.05,0.64-1.77,1.56-1.77c0.9,0,1.53,0.72,1.53,1.74
	C129.73,40.4,129.1,41.12,128.17,41.12 M128.17,37.98c-0.64,0-1.07,0.54-1.07,1.37c0,0.82,0.47,1.37,1.09,1.37
	c0.71,0,1.07-0.6,1.07-1.4C129.27,38.52,128.81,37.98,128.17,37.98z"/>
<polyline class="st1" points="131.27,38.04 131.27,39.11 132.57,39.11 132.57,39.47 131.27,39.47 131.27,41.05 130.82,41.05 
	130.82,37.66 132.65,37.66 132.65,38.04 131.27,38.04 "/>
<path class="st1" d="M102.6,47.71c0,2.17-1.67,3.74-3.76,3.74c-2.13,0-3.76-1.59-3.76-3.66c0-2.17,1.67-3.74,3.76-3.74
	C100.97,44.05,102.6,45.64,102.6,47.71 M101.39,47.74c0-1.97-0.94-3.3-2.55-3.3c-1.75,0-2.54,1.61-2.54,3.3
	c0,1.97,0.93,3.31,2.54,3.31C100.59,51.05,101.39,49.44,101.39,47.74z"/>
<path class="st1" d="M125.55,47.71c0,2.17-1.67,3.74-3.76,3.74c-2.13,0-3.76-1.59-3.76-3.66c0-2.17,1.67-3.74,3.76-3.74
	C123.92,44.05,125.55,45.64,125.55,47.71 M124.34,47.74c0-1.97-0.93-3.3-2.55-3.3c-1.75,0-2.55,1.61-2.55,3.3
	c0,1.97,0.93,3.31,2.55,3.31C123.54,51.05,124.34,49.44,124.34,47.74z"/>
<path class="st1" d="M128.45,47.76h0.89c1.35,0,1.63-0.83,1.63-1.65c0-0.61-0.26-1.11-0.89-1.39c-0.34-0.14-0.66-0.16-1.09-0.16
	h-0.54V47.76 M130.09,48.94c-0.42-0.6-0.58-0.78-1.09-0.78h-0.54v2.39c0,0.2,0.06,0.3,0.3,0.34l0.82,0.16v0.28h-3.22v-0.28
	l0.73-0.16c0.24-0.06,0.3-0.14,0.3-0.34v-5.61c0-0.2-0.08-0.3-0.3-0.34l-0.73-0.16v-0.28h3.14c0.66,0,1.11,0.06,1.49,0.2
	c0.77,0.3,1.21,1.04,1.21,1.73c0,0.88-0.66,1.61-1.75,1.87V48c0.22,0.1,0.34,0.24,1.11,1.26l0.99,1.29c0.14,0.2,0.3,0.34,0.56,0.38
	l0.68,0.12v0.28h-1.73c-0.2,0-0.3-0.06-0.48-0.3L130.09,48.94z"/>
<path class="st1" d="M116.06,46.63h0.34V49h-0.34l-0.14-0.68c-0.06-0.26-0.22-0.36-0.46-0.36h-1.73v2.59c0,0.2,0.06,0.3,0.3,0.34
	l0.82,0.16v0.28h-3.22v-0.28l0.73-0.16c0.24-0.06,0.3-0.14,0.3-0.34v-5.61c0-0.2-0.08-0.3-0.3-0.34l-0.73-0.16v-0.28h5.43v1.79
	h-0.34l-0.28-1.01c-0.08-0.28-0.24-0.38-0.48-0.38h-2.23v3h1.73c0.24,0,0.4-0.09,0.46-0.35L116.06,46.63"/>
<path class="st1" d="M134.36,51.33v-0.28l0.74-0.16c0.24-0.06,0.3-0.14,0.3-0.34v-5.61c0-0.2-0.08-0.3-0.3-0.34l-0.74-0.16v-0.28
	h3.36c0.91,0,1.57,0.12,2.11,0.36c1.35,0.62,1.97,1.95,1.97,3.26c0,1.28-0.48,2.47-1.69,3.11c-0.56,0.3-1.33,0.44-2.35,0.44H134.36
	 M136.45,44.57v6.05c0,0.26,0.06,0.32,0.32,0.32h0.87c0.84,0,1.45-0.1,1.89-0.42c0.74-0.54,1.05-1.47,1.05-2.71
	c0-1.21-0.32-2.36-1.31-2.94c-0.42-0.24-0.95-0.3-1.79-0.3H136.45z"/>
<path class="st1" d="M105.42,51.05v0.28h-2.57v-0.28l0.64-0.14c0.24-0.06,0.42-0.14,0.56-0.32l2.15-2.75l-2.15-2.9
	c-0.14-0.2-0.32-0.3-0.54-0.36l-0.6-0.14v-0.28h3.16v0.28l-0.68,0.12c-0.22,0.04-0.2,0.1-0.08,0.26l1.59,2.25h0.04l1.65-2.21
	c0.12-0.16,0.12-0.24-0.06-0.28l-0.64-0.14v-0.28h2.56v0.28l-0.63,0.14c-0.24,0.06-0.42,0.14-0.56,0.32l-2.05,2.57l2.28,3.08
	c0.14,0.2,0.32,0.3,0.54,0.36l0.6,0.14v0.28h-3.16v-0.28l0.68-0.12c0.22-0.04,0.2-0.1,0.08-0.26l-1.73-2.43h-0.04l-1.77,2.43
	c-0.12,0.16-0.14,0.2,0.08,0.24L105.42,51.05"/>
<path class="st1" d="M130,14.74c0-0.42-0.14-0.75-0.45-0.93c-0.19-0.11-0.45-0.15-0.77-0.15h-2.32v4.7h2.52
	c0.58,0,0.93,0.13,0.96,0.66H130L130,14.74"/>
<path class="st1" d="M130.41,14.74c0-0.42,0.14-0.75,0.45-0.93c0.19-0.11,0.45-0.15,0.77-0.15h2.33v4.7h-2.54
	c-0.58,0-0.93,0.13-0.96,0.66h-0.06L130.41,14.74"/>
<path class="st1" d="M134.47,13.96c0,0,0,4.67,0,5.04c-0.36,0-3.67,0-3.67,0l-0.05,0.12c-0.06,0.15-0.17,0.28-0.55,0.28
	c-0.38,0-0.49-0.14-0.55-0.28L129.61,19c0,0-3.3,0-3.66,0c0-0.37,0-5.04,0-5.04h-0.4v0.13L125.27,14c-0.04-0.12-0.16-0.21-0.29-0.21
	c-0.17,0-0.31,0.14-0.31,0.31c0,0.17,0.14,0.31,0.31,0.31c0.07,0,0.14-0.03,0.19-0.07l0.38,0.12v0.38l-0.28-0.05
	c-0.05-0.1-0.15-0.17-0.27-0.18c-0.17-0.01-0.32,0.12-0.33,0.3c-0.01,0.17,0.12,0.32,0.3,0.33c0.09,0,0.17-0.03,0.23-0.09l0.34,0.06
	v0.39l-0.29-0.01c-0.06-0.09-0.15-0.14-0.26-0.14c-0.17,0-0.31,0.14-0.31,0.31c0,0.17,0.14,0.31,0.31,0.31
	c0.1,0,0.19-0.05,0.24-0.12l0.31,0.01v0.43l-0.3,0.01c-0.06-0.07-0.15-0.12-0.25-0.12c-0.17,0-0.31,0.14-0.31,0.31
	c0,0.17,0.14,0.31,0.31,0.31c0.11,0,0.2-0.06,0.26-0.14l0.29-0.01v0.39l-0.33,0.06c-0.06-0.06-0.13-0.09-0.22-0.09
	c-0.17,0-0.31,0.14-0.31,0.31c0,0.17,0.14,0.31,0.31,0.31c0.12,0,0.23-0.07,0.28-0.18l0.27-0.05v0.39l-0.37,0.11
	c-0.05-0.04-0.12-0.07-0.19-0.07c-0.17,0-0.31,0.14-0.31,0.31c0,0.17,0.14,0.31,0.31,0.31c0.14,0,0.25-0.09,0.29-0.21l0.26-0.08
	v0.37l-0.41,0.18c-0.05-0.03-0.11-0.05-0.17-0.05c-0.17,0.01-0.31,0.15-0.3,0.32c0.01,0.17,0.15,0.31,0.32,0.3
	c0.15-0.01,0.26-0.11,0.29-0.25l0.27-0.12v0.37c0,0,3.6,0,3.81,0c0.16,0.27,0.43,0.41,0.84,0.41c0.41,0,0.68-0.14,0.84-0.41
	c0.21,0,3.82,0,3.82,0v-5.44H134.47"/>
<path class="st1" d="M127.71,12.32c-0.77,0-1.39,0.12-1.39,0.27c0,0.15,0.62,0.27,1.39,0.27c0.77,0,1.39-0.12,1.39-0.27
	C129.1,12.44,128.48,12.32,127.71,12.32"/>
<path class="st1" d="M129.62,10.6l-0.8,0.56l-0.01,0.06l0.19,0.09c0.04,0.02,0.04,0.05,0.02,0.07l-0.5,0.42l-0.05,0l-0.36-0.53
	c-0.02-0.03-0.02-0.07,0.03-0.08l0.24-0.04V11.1l-0.62-0.88h-0.1l-0.62,0.88v0.06l0.24,0.04c0.04,0.01,0.05,0.04,0.03,0.08
	l-0.36,0.53l-0.05,0l-0.47-0.42c-0.02-0.02-0.02-0.05,0.02-0.07l0.19-0.09l-0.01-0.06l-0.84-0.56l-0.07,0.03l0.49,1.5
	c0.25-0.11,0.82-0.19,1.49-0.19c0.67,0,1.24,0.08,1.49,0.19l0.49-1.5L129.62,10.6"/>
<path class="st1" d="M130.2,22.37c-0.77,0-1.39,0.12-1.39,0.27c0,0.15,0.62,0.27,1.39,0.27c0.77,0,1.39-0.12,1.39-0.27
	C131.59,22.49,130.97,22.37,130.2,22.37"/>
<path class="st1" d="M132.11,20.65l-0.8,0.56l-0.01,0.06l0.19,0.09c0.04,0.02,0.04,0.05,0.02,0.07l-0.5,0.42l-0.05,0l-0.36-0.53
	c-0.02-0.03-0.02-0.07,0.03-0.08l0.24-0.04v-0.06l-0.62-0.88h-0.1l-0.62,0.88v0.06l0.24,0.04c0.04,0.01,0.05,0.04,0.03,0.08
	l-0.36,0.53l-0.05,0l-0.47-0.42c-0.02-0.02-0.02-0.05,0.02-0.07l0.19-0.09l-0.01-0.06l-0.84-0.56l-0.07,0.03l0.49,1.5
	c0.25-0.11,0.82-0.19,1.49-0.19c0.67,0,1.24,0.08,1.49,0.19l0.49-1.5L132.11,20.65"/>
<path class="st1" d="M132.69,12.32c-0.77,0-1.39,0.12-1.39,0.27c0,0.15,0.62,0.27,1.39,0.27c0.77,0,1.39-0.12,1.39-0.27
	C134.07,12.44,133.45,12.32,132.69,12.32"/>
<path class="st1" d="M134.6,10.6l-0.8,0.56l-0.01,0.06l0.19,0.09c0.04,0.02,0.04,0.05,0.02,0.07l-0.5,0.42l-0.05,0l-0.36-0.53
	c-0.02-0.03-0.02-0.07,0.03-0.08l0.24-0.04V11.1l-0.62-0.88h-0.1l-0.62,0.88v0.06l0.24,0.04c0.04,0.01,0.05,0.04,0.03,0.08
	l-0.36,0.53l-0.05,0l-0.47-0.43c-0.02-0.02-0.02-0.05,0.02-0.07l0.19-0.08l-0.01-0.06l-0.83-0.56l-0.07,0.03l0.49,1.5
	c0.25-0.11,0.82-0.19,1.49-0.19c0.67,0,1.24,0.08,1.49,0.19l0.49-1.5L134.6,10.6"/>
<path class="st1" d="M130.48,6.57c0,0.16-0.13,0.28-0.28,0.28c-0.16,0-0.29-0.13-0.29-0.28c0-0.16,0.13-0.28,0.29-0.28
	C130.35,6.29,130.48,6.41,130.48,6.57"/>
<path class="st1" d="M137.12,9.23c-0.01,0.16-0.14,0.28-0.3,0.27c-0.16-0.01-0.28-0.14-0.27-0.3c0.01-0.16,0.14-0.28,0.3-0.27
	C137.01,8.94,137.13,9.07,137.12,9.23"/>
<path class="st0" d="M127.06,14.38c0.13,0,0.23,0.03,0.3,0.09c0.05,0.05,0.09,0.12,0.09,0.21c0,0.26-0.2,0.37-0.44,0.37h-0.27v-0.04
	c0.08-0.01,0.08-0.01,0.08-0.13v-0.34c0-0.11-0.01-0.12-0.08-0.13v-0.04H127.06 M127.01,14.89c0,0.09,0.02,0.11,0.07,0.11
	c0.09,0,0.18-0.1,0.18-0.28c0-0.22-0.11-0.29-0.2-0.29c-0.02,0-0.04,0-0.04,0.01c-0.01,0-0.01,0.03-0.01,0.05V14.89z"/>
<path class="st0" d="M128.23,14.71c0,0.22-0.15,0.36-0.35,0.36c-0.21,0-0.34-0.15-0.34-0.34c0-0.17,0.11-0.36,0.36-0.36
	C128.09,14.37,128.23,14.51,128.23,14.71 M127.73,14.69c0,0.19,0.07,0.32,0.17,0.32c0.09,0,0.14-0.09,0.14-0.27
	c0-0.21-0.07-0.32-0.16-0.32C127.8,14.42,127.73,14.51,127.73,14.69z"/>
<path class="st0" d="M129.15,14.38v0.04c-0.08,0.01-0.08,0.01-0.08,0.12l0.01,0.35c0,0.11,0,0.12,0.08,0.13v0.04h-0.32v-0.04
	c0.08-0.01,0.08-0.01,0.08-0.13l0-0.36h0l-0.2,0.52h-0.06l-0.19-0.48h0l-0.01,0.23c0,0.09,0,0.14,0,0.17c0,0.04,0.03,0.05,0.09,0.05
	v0.04h-0.26v-0.04c0.05,0,0.07-0.01,0.08-0.05c0.01-0.03,0.01-0.09,0.02-0.18l0.01-0.21c0.01-0.13,0-0.14-0.08-0.15v-0.04h0.24
	l0.18,0.41l0.16-0.41H129.15"/>
<path class="st0" d="M129.48,14.89c0,0.11,0.01,0.12,0.08,0.13v0.04h-0.34v-0.04c0.07-0.01,0.08-0.01,0.08-0.13v-0.34
	c0-0.11-0.01-0.12-0.08-0.13v-0.04h0.34v0.04c-0.07,0.01-0.08,0.01-0.08,0.13V14.89"/>
<path class="st0" d="M127.82,16.31h-0.09l-0.38-0.49h0v0.19c0,0.11,0,0.17,0.01,0.2c0.01,0.04,0.03,0.05,0.1,0.05v0.04h-0.26v-0.04
	c0.05,0,0.07-0.02,0.08-0.05c0-0.03,0.01-0.09,0.01-0.2v-0.19c0-0.08,0-0.09-0.02-0.12c-0.02-0.02-0.04-0.03-0.08-0.03v-0.04h0.23
	l0.35,0.43h0v-0.14c0-0.11,0-0.17-0.01-0.2c-0.01-0.04-0.03-0.05-0.1-0.05v-0.04h0.26v0.04c-0.05,0-0.08,0.02-0.08,0.05
	c0,0.03-0.01,0.09-0.01,0.2V16.31"/>
<path class="st0" d="M128.24,16.31c-0.07-0.19-0.17-0.44-0.21-0.54c-0.03-0.09-0.06-0.09-0.1-0.1v-0.04h0.33v0.04l-0.04,0
	c-0.04,0-0.04,0.01-0.03,0.05c0.02,0.06,0.1,0.26,0.14,0.36c0.03-0.09,0.1-0.29,0.12-0.33c0.02-0.06,0.02-0.07-0.03-0.08l-0.03,0
	v-0.04h0.25v0.04c-0.06,0.01-0.07,0.01-0.11,0.11c-0.01,0.01-0.13,0.32-0.21,0.53H128.24"/>
<path class="st0" d="M128.7,16.09c0.02,0.06,0.08,0.18,0.18,0.18c0.05,0,0.1-0.04,0.1-0.1c0-0.06-0.04-0.1-0.1-0.12l-0.02-0.01
	c-0.09-0.04-0.18-0.09-0.18-0.2c0-0.12,0.08-0.21,0.25-0.21c0.03,0,0.07,0,0.1,0.01c0.02,0.01,0.04,0.01,0.05,0.01
	c0,0.04,0.01,0.09,0.02,0.16l-0.05,0.01c-0.02-0.07-0.06-0.14-0.14-0.14c-0.05,0-0.09,0.04-0.09,0.09c0,0.05,0.04,0.08,0.11,0.11
	l0.02,0.01c0.1,0.04,0.18,0.1,0.18,0.22c0,0.13-0.1,0.22-0.26,0.22c-0.04,0-0.08-0.01-0.11-0.02c-0.03-0.01-0.05-0.02-0.07-0.02
	c-0.01-0.05-0.02-0.1-0.03-0.17L128.7,16.09"/>
<path class="st0" d="M127.36,17.38c0,0.11,0.01,0.12,0.08,0.13v0.04h-0.34V17.5c0.07-0.01,0.08-0.01,0.08-0.13v-0.34
	c0-0.11-0.01-0.12-0.08-0.13v-0.04h0.34v0.04c-0.07,0.01-0.08,0.01-0.08,0.13V17.38"/>
<path class="st0" d="M127.77,17.39c0,0.05,0,0.08,0.02,0.09c0.02,0.01,0.04,0.01,0.07,0.01c0.03,0,0.08,0,0.1-0.03
	c0.02-0.02,0.03-0.05,0.05-0.1l0.04,0.01c-0.01,0.04-0.03,0.15-0.04,0.18h-0.51V17.5c0.08-0.01,0.09-0.01,0.09-0.13v-0.34
	c0-0.11-0.01-0.12-0.08-0.13v-0.04h0.34v0.04c-0.07,0.01-0.08,0.01-0.08,0.13V17.39"/>
<path class="st0" d="M128.34,17.39c0,0.05,0,0.08,0.02,0.09c0.02,0.01,0.04,0.01,0.07,0.01c0.03,0,0.08,0,0.1-0.03
	c0.02-0.02,0.03-0.05,0.05-0.1l0.04,0.01c-0.01,0.04-0.03,0.15-0.04,0.18h-0.51V17.5c0.08-0.01,0.09-0.01,0.09-0.13v-0.34
	c0-0.11-0.01-0.12-0.08-0.13v-0.04h0.34v0.04c-0.07,0.01-0.08,0.01-0.08,0.13V17.39"/>
<path class="st0" d="M128.84,17.55c-0.07-0.19-0.17-0.44-0.21-0.54c-0.03-0.09-0.05-0.09-0.1-0.1v-0.04h0.33v0.04l-0.04,0
	c-0.04,0-0.04,0.01-0.03,0.05c0.02,0.06,0.1,0.26,0.14,0.36c0.03-0.09,0.1-0.29,0.12-0.33c0.02-0.06,0.02-0.07-0.03-0.08l-0.03,0
	v-0.04h0.25v0.04c-0.06,0.01-0.07,0.01-0.11,0.11c-0.01,0.01-0.13,0.32-0.21,0.53H128.84"/>
<path class="st0" d="M131.7,14.41v0.04c-0.08,0.01-0.08,0.01-0.08,0.12l0.01,0.35c0,0.12,0.01,0.12,0.08,0.13v0.04h-0.32v-0.04
	c0.08-0.01,0.08-0.01,0.08-0.13l0-0.36h0l-0.2,0.52h-0.06l-0.19-0.48h0L131,14.81c0,0.09,0,0.14,0,0.17c0,0.04,0.03,0.05,0.09,0.05
	v0.04h-0.26v-0.04c0.05,0,0.07-0.01,0.08-0.05c0.01-0.03,0.01-0.09,0.02-0.18l0.01-0.21c0.01-0.13,0-0.14-0.08-0.15v-0.04h0.24
	l0.18,0.41l0.16-0.41H131.7"/>
<path class="st0" d="M132.04,14.91c0,0.11,0.01,0.12,0.08,0.13v0.04h-0.34v-0.04c0.07-0.01,0.08-0.01,0.08-0.13v-0.34
	c0-0.11-0.01-0.12-0.08-0.13v-0.04h0.34v0.04c-0.07,0.01-0.08,0.01-0.08,0.13V14.91"/>
<path class="st0" d="M132.81,15.09h-0.09l-0.38-0.49h0v0.19c0,0.11,0,0.17,0.01,0.2c0.01,0.04,0.03,0.05,0.1,0.05v0.04h-0.26v-0.04
	c0.05,0,0.07-0.02,0.08-0.05c0-0.03,0.01-0.09,0.01-0.2V14.6c0-0.08,0-0.09-0.02-0.12c-0.02-0.02-0.04-0.03-0.08-0.03v-0.04h0.23
	l0.34,0.43h0V14.7c0-0.11,0-0.17-0.01-0.2c-0.01-0.04-0.03-0.05-0.1-0.05v-0.04h0.26v0.04c-0.05,0-0.08,0.02-0.08,0.05
	c0,0.03-0.01,0.09-0.01,0.2V15.09"/>
<path class="st0" d="M133.24,15.04l0.03,0c0.04-0.01,0.04-0.02,0.03-0.05l-0.04-0.11h-0.17l-0.03,0.1
	c-0.01,0.04-0.01,0.05,0.03,0.06l0.03,0v0.04h-0.24v-0.04c0.05-0.01,0.07-0.01,0.1-0.1l0.21-0.54l0.07-0.01l0.07,0.2
	c0.04,0.12,0.09,0.25,0.13,0.35c0.03,0.09,0.05,0.1,0.1,0.1v0.04h-0.33V15.04 M133.11,14.81h0.13l-0.07-0.2h0L133.11,14.81z"/>
<path class="st0" d="M131.69,16.16c0,0.11,0.01,0.12,0.1,0.13v0.04h-0.36v-0.04c0.08-0.01,0.09-0.01,0.09-0.13V15.7h-0.02
	c-0.07,0-0.1,0.01-0.11,0.03c-0.01,0.02-0.02,0.04-0.04,0.1h-0.04c0-0.09,0.01-0.16,0.01-0.21h0.03c0.02,0.02,0.03,0.03,0.05,0.03
	h0.41c0.03,0,0.03-0.01,0.05-0.03h0.03c0,0.04,0.01,0.13,0.01,0.21l-0.05,0c-0.02-0.06-0.03-0.09-0.04-0.11
	c-0.02-0.02-0.05-0.02-0.1-0.02h-0.02V16.16"/>
<path class="st0" d="M132.24,16.16c0,0.11,0.01,0.12,0.08,0.13v0.04h-0.34v-0.04c0.07-0.01,0.08-0.01,0.08-0.13v-0.34
	c0-0.11-0.01-0.12-0.08-0.13v-0.04h0.34v0.04c-0.07,0.01-0.08,0.01-0.08,0.13V16.16"/>
<path class="st0" d="M133.1,15.98c0,0.22-0.15,0.36-0.35,0.36c-0.21,0-0.35-0.15-0.35-0.34c0-0.17,0.11-0.36,0.36-0.36
	C132.95,15.63,133.1,15.77,133.1,15.98 M132.59,15.96c0,0.19,0.07,0.32,0.17,0.32c0.09,0,0.14-0.09,0.14-0.27
	c0-0.21-0.07-0.32-0.16-0.32C132.66,15.69,132.59,15.78,132.59,15.96z"/>
<path class="st0" d="M132,16.89v0.04c-0.08,0.01-0.08,0.01-0.08,0.12l0.01,0.35c0,0.12,0.01,0.12,0.08,0.13v0.04h-0.32v-0.04
	c0.08-0.01,0.08-0.01,0.08-0.13l0-0.36h0l-0.2,0.52h-0.06l-0.19-0.48h0l-0.01,0.23c0,0.09,0,0.14,0,0.17c0,0.04,0.03,0.05,0.09,0.05
	v0.04h-0.26v-0.04c0.05,0,0.07-0.01,0.08-0.05c0.01-0.03,0.01-0.09,0.02-0.18l0.01-0.21c0.01-0.13,0-0.14-0.08-0.15v-0.04h0.24
	l0.18,0.41l0.16-0.41H132"/>
<path class="st0" d="M132.16,17.06c0-0.11-0.01-0.12-0.08-0.13v-0.04h0.49c0,0.02,0.01,0.09,0.01,0.17l-0.05,0
	c-0.01-0.05-0.02-0.08-0.04-0.1c-0.02-0.02-0.05-0.02-0.11-0.02h-0.02c-0.04,0-0.04,0-0.04,0.04v0.2h0.05c0.09,0,0.09-0.01,0.1-0.08
	h0.05v0.24h-0.05c-0.01-0.09-0.01-0.1-0.1-0.1h-0.05v0.17c0,0.05,0,0.08,0.02,0.09c0.02,0.01,0.04,0.01,0.07,0.01
	c0.04,0,0.09-0.01,0.11-0.03c0.02-0.02,0.03-0.06,0.05-0.11l0.05,0.01c-0.01,0.05-0.03,0.16-0.04,0.18h-0.53v-0.04
	c0.08-0.01,0.09-0.01,0.09-0.13V17.06"/>
<path class="st0" d="M133,17.53l0.03,0c0.04,0,0.04-0.02,0.03-0.05l-0.04-0.11h-0.17l-0.03,0.1c-0.01,0.04-0.01,0.05,0.03,0.06
	l0.03,0v0.04h-0.24v-0.04c0.05-0.01,0.07-0.01,0.1-0.1l0.21-0.54l0.07-0.01l0.07,0.2c0.04,0.12,0.09,0.25,0.13,0.35
	c0.03,0.09,0.05,0.1,0.1,0.1v0.04H133V17.53 M132.87,17.3H133l-0.07-0.2h0L132.87,17.3z"/>
<path class="st1" d="M129.26,26.1c0,0.16-0.13,0.28-0.28,0.28c-0.16,0-0.29-0.13-0.29-0.28c0-0.16,0.13-0.29,0.29-0.29
	C129.13,25.81,129.26,25.94,129.26,26.1"/>
<path class="st1" d="M132.06,26.56c0,0.16-0.13,0.28-0.28,0.28c-0.16,0-0.29-0.13-0.29-0.28c0-0.16,0.13-0.28,0.29-0.28
	C131.93,26.27,132.06,26.4,132.06,26.56"/>
<line class="st1" x1="121.31" y1="11.02" x2="121.31" y2="11.02"/>
<line class="st1" x1="132.39" y1="7.9" x2="132.39" y2="7.9"/>
<line class="st1" x1="132.93" y1="6.02" x2="132.93" y2="6.02"/>
<line class="st1" x1="137.39" y1="11.51" x2="137.39" y2="11.51"/>
<line class="st1" x1="140.51" y1="17.7" x2="140.51" y2="17.7"/>
<line class="st1" x1="139.54" y1="20.51" x2="139.54" y2="20.51"/>
<path class="st1" d="M122.58,20.73c0.1,0,0.37,0.03,0.61,0.36c0.1,0.14,0.16,0.3,0.16,0.47c0,0.28-0.14,0.44-0.46,0.67l-0.87,0.61
	l-0.24-0.34l0.97-0.69c0.09-0.06,0.21-0.17,0.21-0.3c0-0.07-0.01-0.13-0.08-0.23c-0.1-0.15-0.21-0.16-0.28-0.16
	c-0.1,0-0.2,0.06-0.41,0.21l-0.84,0.55l-0.23-0.33l0.89-0.59C122.25,20.81,122.41,20.73,122.58,20.73"/>
<polyline class="st1" points="121.03,19.94 122.22,19.47 122.35,19.81 120.55,20.5 120.43,20.15 121.35,18.97 120.16,19.39 
	120.03,19.04 121.84,18.41 121.96,18.74 121.03,19.94 "/>
<polyline class="st1" points="119.74,17.55 121.65,17.26 121.71,17.67 119.8,17.96 119.74,17.55 "/>
<polyline class="st1" points="121.58,16 119.62,16.58 119.64,16.17 121.11,15.78 119.68,15.25 119.7,14.85 121.59,15.6 121.58,16 
	"/>
<polyline class="st1" points="119.9,13.81 120.22,12.68 120.54,12.77 120.33,13.51 120.76,13.63 120.96,12.94 121.27,13.03 
	121.07,13.72 121.54,13.85 121.76,13.1 122.08,13.19 121.76,14.33 119.9,13.81 "/>
<path class="st1" d="M122.84,11.64l-0.57-0.05c-0.27-0.03-0.3,0.04-0.37,0.18l-0.02,0.04l0.68,0.36l-0.2,0.36l-1.69-0.93l0.28-0.49
	c0.13-0.22,0.26-0.46,0.6-0.46c0.21,0,0.51,0.18,0.51,0.5c0,0.06-0.01,0.12-0.04,0.18c0.08-0.11,0.21-0.13,0.34-0.12
	c0.07,0,0.14,0.01,0.19,0.02l0.51,0.04L122.84,11.64 M121.42,11.06c-0.1,0.03-0.15,0.1-0.22,0.23l-0.06,0.11l0.47,0.25l0.08-0.14
	c0.07-0.12,0.08-0.19,0.06-0.27c-0.02-0.06-0.08-0.13-0.13-0.16C121.54,11.05,121.47,11.05,121.42,11.06z"/>
<polyline class="st1" points="123.7,7.85 124.03,7.6 125.19,9.14 124.86,9.39 123.7,7.85 "/>
<polyline class="st1" points="125.86,6.89 126.59,8.31 126.23,8.5 125.5,7.08 125.03,7.32 124.88,7.03 126.18,6.36 126.33,6.65 
	125.86,6.89 "/>
<polyline class="st1" points="128.12,7 128.3,7.74 127.92,7.84 127.74,7.09 126.87,6.11 127.27,6.01 127.84,6.69 128.04,5.82 
	128.43,5.73 128.12,7 "/>
<polyline class="st1" points="135.09,7.69 135.7,8.05 135.54,8.33 134.93,7.97 134.5,8.68 134.16,8.47 135.14,6.81 136.13,7.4 
	135.96,7.69 135.32,7.3 135.09,7.69 "/>
<polyline class="st1" points="138.56,13.95 139.08,13.37 138.32,13.19 138.19,12.79 139.33,13.08 140.04,12.25 140.18,12.67 
	139.69,13.21 140.4,13.38 140.52,13.77 139.46,13.49 138.69,14.37 138.56,13.95 "/>
<polyline class="st1" points="140.4,15.32 139.95,15.36 140,16.07 139.68,16.09 139.63,15.39 138.81,15.44 138.78,15.06 140.7,14.9 
	140.78,16.06 140.45,16.08 140.4,15.32 "/>
<path class="st1" d="M141.75,16.27c0.05-6.36-5.09-11.57-11.46-11.62c-2.98-0.02-5.81,1.08-7.98,3.11
	c-2.33,2.18-3.63,5.14-3.66,8.33c-0.03,3.8,1.81,7.37,4.94,9.55c0.3,1.24,1.41,2.16,2.74,2.16c0.38,0,0.75-0.07,1.1-0.22
	c0.37,0.12,0.75,0.22,1.13,0.3c-0.12,0.34-0.3,0.66-0.47,0.95l0.28,0.28c0.07-0.04,0.14-0.07,0.22-0.07c0.21,0,0.41,0.14,0.41,0.41
	c0,0.21-0.14,0.41-0.44,0.41c-0.16,0-0.37-0.09-0.48-0.33c0,0-0.08,0.24-0.08,0.52c0,0.86,0.93,1.8,2.18,2.2
	c1.25-0.39,2.18-1.34,2.18-2.2c0-0.28-0.07-0.52-0.07-0.52c-0.11,0.24-0.32,0.33-0.48,0.33c-0.3,0-0.44-0.2-0.44-0.41
	c0-0.26,0.2-0.41,0.41-0.41c0.08,0,0.16,0.02,0.22,0.07l0.25-0.25l0.01,0l0.01-0.01c0,0,0,0,0,0l0-0.01l0,0l0,0v0
	c-0.12-0.3-0.22-0.57-0.28-0.83c2.07-0.28,3.81-1.16,5.2-2.62l0,0C140.06,23.17,141.73,19.87,141.75,16.27 M126.33,27.4
	c-1.33,0-2.41-1.09-2.41-2.42c0-0.42,0.11-0.81,0.29-1.15c0.12,0.11,0.26,0.23,0.39,0.35c-0.12,0.25-0.19,0.52-0.19,0.82
	c0,0.72,0.37,1.32,1.06,1.73c0.4,0.24,0.86,0.45,1.34,0.63C126.66,27.38,126.5,27.4,126.33,27.4z M130.2,23.86
	c-0.45,0-0.9-0.04-1.33-0.12c-0.47-0.96-1.46-1.58-2.54-1.58c-0.28,0-0.54,0.04-0.79,0.11c-1.89-1.45-3.02-3.72-3.02-6.11
	c0-4.24,3.45-7.69,7.68-7.69c4.24,0,7.68,3.45,7.68,7.69C137.89,20.41,134.44,23.86,130.2,23.86z M131.84,24.08
	c-0.2,0.32-0.32,0.74-0.36,1.16c-0.7-0.18-1.34-0.43-1.9-0.68c0.08-0.16,0.26-0.31,0.57-0.31c0.02,0,0.04,0,0.06,0
	C130.77,24.25,131.31,24.19,131.84,24.08z M129.39,24.21c-0.06,0.06-0.12,0.12-0.16,0.19c-0.25-0.1-0.72-0.33-0.88-0.42
	C128.59,24.06,129.14,24.19,129.39,24.21z M126.33,22.55c0.81,0,1.56,0.42,2.01,1.08c-0.39-0.1-0.77-0.22-1.15-0.38l0,0l-0.01-0.01
	c-0.26-0.12-0.54-0.18-0.83-0.18c-0.64,0-1.21,0.32-1.57,0.8c-0.15-0.08-0.29-0.17-0.44-0.26
	C124.79,22.97,125.51,22.55,126.33,22.55z M131.74,28.66c-0.44,0-0.77,0.34-0.77,0.77c0,0.5,0.35,0.8,0.8,0.8
	c0.06,0,0.11-0.01,0.16-0.02c-0.13,0.62-0.87,1.29-1.75,1.59c-0.87-0.3-1.61-0.97-1.75-1.59c0.05,0.01,0.11,0.02,0.16,0.02
	c0.45,0,0.8-0.3,0.8-0.8c0-0.43-0.33-0.77-0.77-0.77c0.11-0.21,0.24-0.46,0.33-0.72c0.52,0.09,1.03,0.14,1.51,0.14
	c0.39,0,0.76-0.02,1.13-0.06c0.05,0.19,0.17,0.55,0.2,0.64C131.78,28.66,131.76,28.66,131.74,28.66z M130.47,27.69
	c-1.54,0-3.46-0.52-4.78-1.3c-0.39-0.23-0.86-0.66-0.86-1.4c0-0.19,0.04-0.37,0.1-0.54c0.5,0.41,1.01,0.79,1.33,0.97
	c0.08,0.04,0.12,0.06,0.21,0.06c0.21,0,0.38-0.17,0.38-0.39c0-0.16-0.09-0.29-0.23-0.36c-0.28-0.12-0.85-0.36-1.47-0.68
	c0.28-0.36,0.72-0.6,1.21-0.6c0.23,0,0.44,0.05,0.65,0.14l0.42,0.24c1.34,0.82,4.75,2.9,8.88,1.82
	C134.74,27.02,132.83,27.69,130.47,27.69z M136.93,25.06c-1.85,0.65-3.57,0.61-5.05,0.28c0.05-0.63,0.28-1.33,0.67-1.44
	c3.32-1.01,5.74-4.09,5.74-7.73c0-4.45-3.63-8.07-8.09-8.07c-4.46,0-8.09,3.62-8.09,8.07c0,2.43,1.11,4.75,3,6.27
	c-0.44,0.21-0.82,0.54-1.1,0.93c-0.13-0.09-0.26-0.19-0.38-0.29l-0.08,0.08c0.08,0.1,0.2,0.23,0.35,0.37
	c-0.25,0.42-0.4,0.91-0.4,1.43c0,0.04,0,0.07,0.01,0.11c-2.82-2.12-4.48-5.45-4.45-9c0.03-3.09,1.28-5.95,3.54-8.05
	c2.09-1.96,4.83-3.02,7.69-3c6.14,0.05,11.1,5.09,11.05,11.23C141.32,19.76,139.71,22.95,136.93,25.06z"/>
<path class="st1" d="M124.05,9.92c0,0.16-0.07,0.34-0.22,0.5c-0.28,0.3-0.57,0.33-0.6,0.33l-0.08-0.32
	c0.05-0.01,0.26-0.06,0.42-0.23c0.07-0.08,0.11-0.16,0.11-0.23c0-0.08-0.05-0.21-0.21-0.21c-0.17,0-0.45,0.24-0.73,0.24
	c-0.11,0-0.23-0.02-0.36-0.13c-0.12-0.11-0.18-0.26-0.18-0.4c0-0.16,0.07-0.33,0.21-0.48c0.26-0.28,0.54-0.3,0.57-0.31L123.03,9
	c-0.03,0.01-0.24,0.05-0.37,0.19c-0.07,0.07-0.1,0.15-0.1,0.22c0,0.08,0.05,0.17,0.17,0.17c0.14,0,0.48-0.25,0.77-0.25
	c0.13,0,0.23,0.02,0.36,0.14C123.98,9.6,124.05,9.76,124.05,9.92"/>
<path class="st1" d="M132.93,7.98c-0.49,0-0.94-0.37-0.94-0.94c0-0.5,0.34-1.09,0.95-1.09c0.5,0,0.96,0.35,0.96,0.92
	C133.9,7.3,133.61,7.98,132.93,7.98 M133.49,6.87c0-0.13-0.03-0.27-0.11-0.38c-0.08-0.11-0.22-0.19-0.38-0.19
	c-0.35,0-0.6,0.43-0.6,0.78c0,0.33,0.22,0.55,0.52,0.55C133.3,7.63,133.49,7.12,133.49,6.87z"/>
<path class="st1" d="M138.27,12.1c-0.59,0-0.91-0.57-0.91-0.94c0-0.57,0.62-1.01,1.1-1.01c0.53,0,0.91,0.5,0.91,0.96
	C139.38,11.61,138.84,12.1,138.27,12.1 M138.2,11.71c0.34,0,0.81-0.29,0.81-0.69c0-0.27-0.21-0.48-0.48-0.48
	c-0.32,0-0.8,0.28-0.8,0.68C137.73,11.43,137.89,11.71,138.2,11.71z"/>
<path class="st1" d="M138.65,17.78c0-0.48,0.32-0.94,0.96-0.94c0.54,0,1.06,0.33,1.06,0.93c0,0.49-0.31,0.96-0.95,0.96
	C139.18,18.72,138.65,18.38,138.65,17.78 M139.75,18.31c0.34,0,0.59-0.21,0.59-0.52c0-0.37-0.42-0.55-0.75-0.55
	c-0.42,0-0.59,0.27-0.59,0.53C139,18.17,139.49,18.31,139.75,18.31z"/>
<path class="st1" d="M137.92,20.05l0.57,0c0.27,0,0.29-0.06,0.36-0.21l0.02-0.04l-0.69-0.32l0.17-0.37l1.74,0.81l-0.22,0.5
	c-0.15,0.34-0.28,0.51-0.6,0.51c-0.21,0-0.51-0.17-0.5-0.48c0-0.05,0.01-0.1,0.02-0.16c-0.1,0.18-0.36,0.15-0.52,0.15l-0.52,0
	L137.92,20.05 M139.04,20.26c0,0.15,0.12,0.26,0.26,0.26c0.12,0,0.2-0.07,0.27-0.23l0.06-0.14l-0.48-0.22l-0.08,0.18
	C139.05,20.17,139.04,20.22,139.04,20.26z"/>
<path class="st1" d="M136.75,22.18c0-0.39,0.18-0.61,0.41-0.89l0.25-0.31l1.49,1.22l-0.34,0.41c-0.19,0.23-0.41,0.52-0.84,0.52
	c-0.24,0-0.46-0.11-0.61-0.24C136.93,22.73,136.75,22.47,136.75,22.18 M137.77,22.74c0.2,0,0.32-0.06,0.56-0.35l0.07-0.09
	l-0.99-0.81l-0.12,0.15c-0.12,0.15-0.18,0.29-0.18,0.43c0,0.19,0.09,0.35,0.28,0.5C137.52,22.69,137.64,22.74,137.77,22.74z"/>
<g>
	<path class="st0" d="M5.17,27.98H1.08v4.13h3.98v0.67H1.08v4.19h4.19v0.67H0.4V27.31h4.77V27.98z"/>
	<path class="st0" d="M11.11,27.31c3.72,0,4.77,2.89,4.77,5.16c0,2.39-1.19,5.16-4.65,5.16H8.05V27.31H11.11z M8.73,36.96h2.46
		c2.1,0,3.96-1.59,3.96-4.49c0-2.65-1.63-4.49-4-4.49H8.73V36.96z"/>
	<path class="st0" d="M26.04,27.31v5.63c0,3.54-1.88,4.83-3.66,4.83c-1.97,0-3.65-1.54-3.65-4.64v-5.81h0.68v5.78
		c0,2.71,1.41,3.93,2.97,3.93c1.49,0,2.99-1.1,2.99-4.04v-5.67H26.04z"/>
	<path class="st0" d="M36.52,28.91c-1.09-0.68-2.08-1-3.11-1c-2.18,0-3.82,1.95-3.82,4.57c0,2.66,1.63,4.54,3.91,4.54
		c0.99,0,1.92-0.32,3.11-1.06v0.83c-1.01,0.64-2.09,0.97-3.1,0.97c-2.67,0-4.65-2.25-4.65-5.28c0-3.16,2.19-5.31,4.59-5.31
		c0.97,0,2.01,0.29,3.08,0.86V28.91z"/>
	<path class="st0" d="M47.36,37.63h-0.7l-1.38-3.57H41l-1.38,3.57h-0.7l4.04-10.39h0.37L47.36,37.63z M43.13,28.54l-1.87,4.86h3.75
		L43.13,28.54z"/>
	<path class="st0" d="M54.8,27.98h-3.28v9.65h-0.68v-9.65h-3.28v-0.67h7.24V27.98z"/>
	<path class="st0" d="M57.92,37.63h-0.68V27.31h0.68V37.63z"/>
	<path class="st0" d="M65.55,37.76c-2.59,0-4.61-2.33-4.61-5.29c0-2.97,2.02-5.3,4.61-5.3c2.6,0,4.64,2.33,4.64,5.3
		C70.19,35.44,68.16,37.76,65.55,37.76z M65.58,27.92c-2.19,0-3.91,1.98-3.91,4.55c0,2.57,1.72,4.55,3.91,4.55
		c2.19,0,3.88-1.98,3.88-4.55C69.46,29.9,67.77,27.92,65.58,27.92z"/>
	<path class="st0" d="M81.1,37.63h-0.56l-6.64-9.02v9.02h-0.68V27.31h0.58l6.62,9.02v-9.02h0.68V37.63z"/>
</g>
<g>
	<path class="st0" d="M7.68,16.24c-1.04-0.65-1.97-0.96-2.96-0.96c-2.07,0-3.63,1.87-3.63,4.37C1.09,22.2,2.64,24,4.81,24
		c0.94,0,1.83-0.3,2.96-1.01v0.8c-0.96,0.61-1.98,0.93-2.95,0.93c-2.53,0-4.42-2.16-4.42-5.05c0-3.03,2.08-5.08,4.36-5.08
		c0.93,0,1.91,0.28,2.92,0.83V16.24z"/>
	<path class="st0" d="M13.75,24.7c-2.46,0-4.38-2.23-4.38-5.07c0-2.84,1.92-5.07,4.38-5.07c2.47,0,4.41,2.23,4.41,5.07
		C18.15,22.48,16.22,24.7,13.75,24.7z M13.77,15.28c-2.08,0-3.71,1.9-3.71,4.36c0,2.46,1.63,4.36,3.71,4.36
		c2.08,0,3.69-1.9,3.69-4.36C17.46,17.18,15.85,15.28,13.77,15.28z"/>
	<path class="st0" d="M27.9,24.57h-0.54l-6.31-8.63v8.63h-0.65V14.7h0.55l6.3,8.63V14.7h0.65V24.57z"/>
	<path class="st0" d="M36.47,15.34h-3.12v9.24h-0.65v-9.24h-3.12V14.7h6.88V15.34z"/>
	<path class="st0" d="M38.81,24.57h-0.65V14.7h0.65V24.57z"/>
	<path class="st0" d="M48.88,24.57h-0.54l-6.31-8.63v8.63h-0.65V14.7h0.55l6.3,8.63V14.7h0.65V24.57z"/>
	<path class="st0" d="M58.25,14.7v5.39c0,3.39-1.79,4.62-3.48,4.62c-1.88,0-3.47-1.48-3.47-4.44V14.7h0.65v5.53
		c0,2.59,1.34,3.76,2.83,3.76c1.41,0,2.84-1.06,2.84-3.87V14.7H58.25z"/>
	<path class="st0" d="M61.31,24.57h-0.65V14.7h0.65V24.57z"/>
	<path class="st0" d="M71.38,24.57h-0.54l-6.31-8.63v8.63h-0.65V14.7h0.55l6.3,8.63V14.7h0.65V24.57z"/>
	<path class="st0" d="M80.94,16.28c-1.01-0.68-1.95-1-2.95-1c-2.11,0-3.67,1.85-3.67,4.36c0,2.21,1.23,4.36,3.85,4.36
		c0.96,0,1.62-0.22,2.28-0.61v-2.66H78.7v-0.64h2.4v3.78c-0.99,0.56-1.99,0.84-2.95,0.84c-2.58,0-4.52-2.17-4.52-5.1
		c0-2.9,1.89-5.04,4.46-5.04c0.94,0,1.68,0.22,2.85,0.84V16.28z"/>
</g>
<g>
	<path class="st0" d="M2.41,5.01c2.44,0,3.13,1.9,3.13,3.39c0,1.57-0.78,3.39-3.05,3.39H0.4V5.01H2.41z M0.85,11.36h1.61
		c1.38,0,2.6-1.05,2.6-2.96c0-1.74-1.07-2.96-2.62-2.96H0.85V11.36z"/>
	<path class="st0" d="M10.72,5.45H8.04v2.72h2.61v0.44H8.04v2.76h2.75v0.44H7.6V5.01h3.13V5.45z"/>
	<path class="st0" d="M14.25,5.01c1.34,0,1.87,0.82,1.87,1.79c0,0.88-0.43,1.82-1.92,1.82h-1.09v3.18h-0.45V5.01H14.25z M13.11,8.19
		h1.07c1.07,0,1.46-0.61,1.46-1.37c0-0.74-0.4-1.36-1.41-1.36h-1.12V8.19z"/>
	<path class="st0" d="M22.08,11.8h-0.46l-0.91-2.35h-2.8l-0.91,2.35h-0.46l2.65-6.84h0.24L22.08,11.8z M19.31,5.82l-1.23,3.2h2.46
		L19.31,5.82z"/>
	<path class="st0" d="M25.22,5.01c1.4,0,1.9,0.85,1.9,1.75c0,0.79-0.36,1.33-1.09,1.65c0.27,0.17,0.5,0.56,0.77,1.04l1.29,2.35
		h-0.52l-1-1.86c-0.69-1.28-0.91-1.39-1.6-1.39h-0.77v3.26h-0.45V5.01H25.22z M24.19,8.11h0.95c1.01,0,1.5-0.52,1.5-1.33
		c0-0.77-0.46-1.32-1.51-1.32h-0.93V8.11z"/>
	<path class="st0" d="M33.4,5.45h-2.15v6.35H30.8V5.45h-2.15V5.01h4.75V5.45z"/>
	<path class="st0" d="M39.87,5.01h0.45v6.79h-0.45V5.78h-0.02l-2.17,3.18l-2.17-3.18H35.5v6.02h-0.45V5.01h0.45l2.19,3.16
		L39.87,5.01z"/>
	<path class="st0" d="M45.74,5.45h-2.68v2.72h2.61v0.44h-2.61v2.76h2.75v0.44h-3.19V5.01h3.13V5.45z"/>
	<path class="st0" d="M52.85,11.8h-0.37l-4.35-5.93v5.93h-0.45V5.01h0.38l4.35,5.93V5.01h0.45V11.8z"/>
	<path class="st0" d="M59.25,5.45H57.1v6.35h-0.45V5.45H54.5V5.01h4.75V5.45z"/>
	<path class="st0" d="M67.17,5.45h-2.51v2.58h2.26v0.44h-2.26v3.33h-0.45V5.01h2.95V5.45z"/>
	<path class="st0" d="M71.66,11.89c-1.7,0-3.03-1.53-3.03-3.48c0-1.95,1.33-3.48,3.03-3.48c1.71,0,3.04,1.53,3.04,3.48
		C74.71,10.36,73.37,11.89,71.66,11.89z M71.68,5.41c-1.44,0-2.56,1.3-2.56,3c0,1.69,1.13,3,2.56,3c1.44,0,2.55-1.3,2.55-3
		C74.23,6.71,73.12,5.41,71.68,5.41z"/>
	<path class="st0" d="M78.23,5.01c1.4,0,1.9,0.85,1.9,1.75c0,0.79-0.36,1.33-1.09,1.65c0.27,0.17,0.5,0.56,0.76,1.04l1.29,2.35
		h-0.52l-1-1.86c-0.69-1.28-0.91-1.39-1.6-1.39H77.2v3.26h-0.45V5.01H78.23z M77.2,8.11h0.95c1.01,0,1.5-0.52,1.5-1.33
		c0-0.77-0.46-1.32-1.51-1.32H77.2V8.11z"/>
</g>
</svg>
